<mxfile host="app.diagrams.net" agent="Mozilla/5.0 (Windows NT 10.0; Win64; x64) AppleWebKit/537.36 (KHTML, like Gecko) Chrome/131.0.0.0 Safari/537.36" version="25.0.3">
  <diagram name="Page-1" id="nODdowL7q6405K23EEmy">
    <mxGraphModel dx="794" dy="412" grid="1" gridSize="10" guides="1" tooltips="1" connect="1" arrows="1" fold="1" page="1" pageScale="1" pageWidth="2300" pageHeight="2300" math="0" shadow="0">
      <root>
        <mxCell id="0" />
        <mxCell id="1" parent="0" />
        <mxCell id="IQCYq30CUdbL_iy3OjNl-16" style="edgeStyle=orthogonalEdgeStyle;rounded=0;orthogonalLoop=1;jettySize=auto;html=1;" edge="1" parent="1" source="IQCYq30CUdbL_iy3OjNl-1" target="IQCYq30CUdbL_iy3OjNl-2">
          <mxGeometry relative="1" as="geometry" />
        </mxCell>
        <mxCell id="IQCYq30CUdbL_iy3OjNl-1" value="Tweet service" style="rounded=1;whiteSpace=wrap;html=1;" vertex="1" parent="1">
          <mxGeometry x="450" y="60" width="120" height="60" as="geometry" />
        </mxCell>
        <mxCell id="IQCYq30CUdbL_iy3OjNl-2" value="Homeline service" style="rounded=0;whiteSpace=wrap;html=1;" vertex="1" parent="1">
          <mxGeometry x="450" y="230" width="120" height="60" as="geometry" />
        </mxCell>
        <mxCell id="IQCYq30CUdbL_iy3OjNl-3" value="API Gateway" style="rounded=1;whiteSpace=wrap;html=1;" vertex="1" parent="1">
          <mxGeometry x="170" y="50" width="80" height="460" as="geometry" />
        </mxCell>
        <mxCell id="IQCYq30CUdbL_iy3OjNl-20" style="edgeStyle=orthogonalEdgeStyle;rounded=0;orthogonalLoop=1;jettySize=auto;html=1;entryX=1;entryY=0.5;entryDx=0;entryDy=0;" edge="1" parent="1" source="IQCYq30CUdbL_iy3OjNl-4" target="IQCYq30CUdbL_iy3OjNl-2">
          <mxGeometry relative="1" as="geometry" />
        </mxCell>
        <mxCell id="IQCYq30CUdbL_iy3OjNl-4" value="Fanout service" style="rounded=1;whiteSpace=wrap;html=1;" vertex="1" parent="1">
          <mxGeometry x="650" y="140" width="120" height="60" as="geometry" />
        </mxCell>
        <mxCell id="IQCYq30CUdbL_iy3OjNl-15" style="edgeStyle=orthogonalEdgeStyle;rounded=0;orthogonalLoop=1;jettySize=auto;html=1;entryX=0.5;entryY=1;entryDx=0;entryDy=0;" edge="1" parent="1" source="IQCYq30CUdbL_iy3OjNl-5" target="IQCYq30CUdbL_iy3OjNl-4">
          <mxGeometry relative="1" as="geometry" />
        </mxCell>
        <mxCell id="IQCYq30CUdbL_iy3OjNl-5" value="SocialGraph" style="rounded=1;whiteSpace=wrap;html=1;" vertex="1" parent="1">
          <mxGeometry x="450" y="370" width="120" height="60" as="geometry" />
        </mxCell>
        <mxCell id="IQCYq30CUdbL_iy3OjNl-6" value="" style="endArrow=classic;html=1;rounded=0;entryX=0.061;entryY=0.844;entryDx=0;entryDy=0;entryPerimeter=0;" edge="1" parent="1" target="IQCYq30CUdbL_iy3OjNl-1">
          <mxGeometry width="50" height="50" relative="1" as="geometry">
            <mxPoint x="250" y="110" as="sourcePoint" />
            <mxPoint x="300" y="60" as="targetPoint" />
          </mxGeometry>
        </mxCell>
        <mxCell id="IQCYq30CUdbL_iy3OjNl-7" value="" style="endArrow=classic;html=1;rounded=0;exitX=0;exitY=0.75;exitDx=0;exitDy=0;entryX=0.933;entryY=0.487;entryDx=0;entryDy=0;entryPerimeter=0;" edge="1" parent="1" source="IQCYq30CUdbL_iy3OjNl-2" target="IQCYq30CUdbL_iy3OjNl-3">
          <mxGeometry width="50" height="50" relative="1" as="geometry">
            <mxPoint x="380" y="240" as="sourcePoint" />
            <mxPoint x="430" y="190" as="targetPoint" />
          </mxGeometry>
        </mxCell>
        <mxCell id="IQCYq30CUdbL_iy3OjNl-8" value="" style="endArrow=classic;html=1;rounded=0;entryX=-0.017;entryY=0.622;entryDx=0;entryDy=0;entryPerimeter=0;" edge="1" parent="1" target="IQCYq30CUdbL_iy3OjNl-5">
          <mxGeometry width="50" height="50" relative="1" as="geometry">
            <mxPoint x="250" y="410" as="sourcePoint" />
            <mxPoint x="300" y="360" as="targetPoint" />
          </mxGeometry>
        </mxCell>
        <mxCell id="IQCYq30CUdbL_iy3OjNl-9" value="GET /v1/tweet" style="text;html=1;align=center;verticalAlign=middle;resizable=0;points=[];autosize=1;strokeColor=none;fillColor=none;" vertex="1" parent="1">
          <mxGeometry x="260" y="128" width="100" height="30" as="geometry" />
        </mxCell>
        <mxCell id="IQCYq30CUdbL_iy3OjNl-10" value="PUT /v1/tweet" style="text;html=1;align=center;verticalAlign=middle;resizable=0;points=[];autosize=1;strokeColor=none;fillColor=none;" vertex="1" parent="1">
          <mxGeometry x="255" y="170" width="100" height="30" as="geometry" />
        </mxCell>
        <mxCell id="IQCYq30CUdbL_iy3OjNl-13" value="getTheFollowers of user" style="text;html=1;align=center;verticalAlign=middle;resizable=0;points=[];autosize=1;strokeColor=none;fillColor=none;" vertex="1" parent="1">
          <mxGeometry x="655" y="268" width="150" height="30" as="geometry" />
        </mxCell>
        <mxCell id="IQCYq30CUdbL_iy3OjNl-18" style="edgeStyle=orthogonalEdgeStyle;rounded=0;orthogonalLoop=1;jettySize=auto;html=1;entryX=0.439;entryY=-0.022;entryDx=0;entryDy=0;entryPerimeter=0;" edge="1" parent="1" source="IQCYq30CUdbL_iy3OjNl-1" target="IQCYq30CUdbL_iy3OjNl-4">
          <mxGeometry relative="1" as="geometry" />
        </mxCell>
        <mxCell id="IQCYq30CUdbL_iy3OjNl-19" value="takes the user tweet" style="text;html=1;align=center;verticalAlign=middle;resizable=0;points=[];autosize=1;strokeColor=none;fillColor=none;" vertex="1" parent="1">
          <mxGeometry x="585" y="58" width="130" height="30" as="geometry" />
        </mxCell>
        <mxCell id="IQCYq30CUdbL_iy3OjNl-21" value="send to followers time line" style="text;html=1;align=center;verticalAlign=middle;resizable=0;points=[];autosize=1;strokeColor=none;fillColor=none;" vertex="1" parent="1">
          <mxGeometry x="550" y="208" width="160" height="30" as="geometry" />
        </mxCell>
        <mxCell id="IQCYq30CUdbL_iy3OjNl-22" value="send the tweet to own time line" style="text;html=1;align=center;verticalAlign=middle;resizable=0;points=[];autosize=1;strokeColor=none;fillColor=none;" vertex="1" parent="1">
          <mxGeometry x="435" y="128" width="190" height="30" as="geometry" />
        </mxCell>
      </root>
    </mxGraphModel>
  </diagram>
</mxfile>
